<svg height="512pt" viewBox="0 -6 512 512" width="512pt" xmlns="http://www.w3.org/2000/svg"><path d="m512 250.378906c0 138.28125-112.097656 250.378906-250.378906 250.378906s-250.378906-112.097656-250.378906-250.378906 112.097656-250.378906 250.378906-250.378906 250.378906 112.097656 250.378906 250.378906zm0 0" fill="#0ab59e"/><path d="m509.941406 282.59375c1.136719-8.835938 1.800782-17.816406 1.992188-26.914062l-15.898438-15.898438c-1.59375-1.59375-1.59375-4.183594 0-5.78125l14.113282-14.109375c-1.015626-8.351563-2.4375-16.574219-4.253907-24.652344l-24.3125 24.308594c-1.59375 1.597656-4.183593 1.597656-5.78125 0l-51.921875-51.921875c-1.597656-1.597656-1.597656-4.1875 0-5.78125l47.777344-47.777344c-3.773438-5.804687-7.78125-11.441406-12.007812-16.898437l-50.222657 50.222656c-1.597656 1.597656-4.183593 1.597656-5.78125 0l-46.191406-46.195313c-1.597656-1.59375-1.597656-4.183593 0-5.78125l49.175781-49.171874c-5.667968-4.035157-11.519531-7.824219-17.523437-11.382813l-46.105469 46.105469c-1.597656 1.59375-4.1875 1.59375-5.78125 0l-47.335938-47.335938-53.679687 11.0625-36.894531 36.894532c-1.597656 1.59375-4.1875 1.59375-5.78125 0l-23.300782-23.300782-9.730468 2.003906c-4.667969.964844-9.261719 2.097657-13.785156 3.386719l32.363281 32.363281c1.59375 1.59375 1.59375 4.183594 0 5.78125l-49.085938 49.082032-51.738281-51.738282c-5.320312 4.292969-10.40625 8.859376-15.234375 13.671876l52.523437 52.519531-57.085937 57.085937-38.328125-38.328125c-2.121094 7.742188-3.878906 15.628907-5.253906 23.652344l29.128906 29.128906-32.070312 32.070313c.636718 8.695312 1.710937 17.265625 3.214843 25.6875l43.308594-43.308594 57.085937 57.085938-65.375 65.371093c4.34375 5.261719 8.960938 10.292969 13.828126 15.078125l66-65.996094 49.082031 49.082032c1.597656 1.597656 1.597656 4.183594 0 5.78125l-52.417969 52.421875c6.980469 2.847656 14.171875 5.3125 21.558594 7.34375l45.3125-45.3125c1.597656-1.597657 4.183594-1.597657 5.78125 0l54.8125 54.8125-10.566406 10.570312 23.964843 4.9375 1.054688-1.054687 1.601562 1.601562 36.40625 7.503906-20.664062-20.667968c-1.597657-1.597656-1.597657-4.183594 0-5.78125l51.304687-51.300782c1.59375-1.597656 4.183594-1.597656 5.78125 0l62.488282 62.488282c5.628906-3.960938 11.085937-8.144532 16.359374-12.542969l-64.398437-64.398437c-1.59375-1.597657-1.59375-4.1875 0-5.78125l46.195313-46.195313c1.597656-1.59375 4.183593-1.59375 5.78125 0l61.464843 61.464844c3.855469-5.855469 7.484375-11.871094 10.847657-18.058594l-57.859376-57.859375c-1.597656-1.59375-1.597656-4.183594 0-5.78125l51.921876-51.921875c1.597656-1.597656 4.1875-1.597656 5.78125 0zm-120.746094-114.96875-51.921874 51.925781c-1.597657 1.59375-4.1875 1.59375-5.78125 0l-46.195313-46.195312c-1.597656-1.597657-1.597656-4.183594 0-5.78125l51.921875-51.921875c1.597656-1.597656 4.1875-1.597656 5.78125 0l46.195312 46.191406c1.59375 1.597656 1.59375 4.1875 0 5.78125zm-69.265624 69.265625-51.976563 51.976563-51.972656-51.976563 49.082031-49.082031c1.597656-1.597656 4.183594-1.597656 5.78125 0zm-51.355469-195.664063 57.082031 57.082032-54.8125 54.8125c-1.597656 1.597656-4.183594 1.597656-5.78125 0l-51.304688-51.300782c-1.59375-1.597656-1.59375-4.1875 0-5.78125zm-69.265625 75.046876 51.300781 51.300781c1.597656 1.597656 1.597656 4.1875 0 5.78125l-49.082031 49.085937-57.085938-57.085937 49.085938-49.082031c1.59375-1.597657 4.183594-1.597657 5.78125 0zm-126.402344 120.617187 57.082031-57.082031 57.085938 57.082031-57.085938 57.085937zm71.535156 71.539063 57.085938-57.085938 51.972656 51.976562-54.191406 54.191407c-1.597656 1.597656-4.183594 1.597656-5.78125 0zm121.242188 121.242187-51.925782-51.925781c-1.59375-1.597656-1.59375-4.183594 0-5.78125l54.195313-54.191406 54.8125 54.8125c1.597656 1.597656 1.597656 4.183593 0 5.78125l-51.300781 51.304687c-1.597656 1.59375-4.183594 1.59375-5.78125 0zm71.535156-71.539063-54.8125-54.8125 49.082031-49.085937c1.597657-1.59375 4.1875-1.59375 5.78125 0l51.925781 51.925781c1.59375 1.597656 1.59375 4.183594 0 5.78125l-46.195312 46.191406c-1.59375 1.597657-4.183594 1.597657-5.78125 0zm66.429688-66.425781-51.925782-51.925781c-1.59375-1.59375-1.59375-4.183594 0-5.78125l51.921875-51.921875c1.597657-1.597656 4.1875-1.597656 5.78125 0l51.925781 51.921875c1.59375 1.597656 1.59375 4.1875 0 5.78125l-51.925781 51.925781c-1.59375 1.59375-4.183593 1.59375-5.777343 0zm0 0" fill="#0ed1b2"/><path d="m214.609375 435.867188 166.875 34.382812c-10.058594 5.496094-20.539063 10.308594-31.375 14.402344l-135.5-27.917969-55.8125-11.5c-44.714844-9.214844-85.226563-33.78125-114.070313-69.171875s-44.726562-80.027344-44.726562-125.683594 15.882812-90.292968 44.726562-125.683594c28.84375-35.390624 69.355469-59.957031 114.070313-69.167968l55.8125-11.503906 135.5-27.917969c10.835937 4.09375 21.316406 8.90625 31.375 14.402343l-166.875 34.386719-51.6875 10.648438c-82.558594 17.011719-142.484375 90.542969-142.484375 174.835937 0 84.292969 59.925781 157.824219 142.484375 174.835938zm120.082031-228.921876c-4.234375 0-7.664062 3.429688-7.664062 7.664063s3.429687 7.667969 7.664062 7.667969h41.910156c16.984376 0 32.152344-9.484375 39.582032-24.75 1.851562-3.808594.269531-8.394532-3.539063-10.246094-3.808593-1.851562-8.390625-.269531-10.246093 3.535156-4.839844 9.949219-14.726563 16.128906-25.796876 16.128906zm86.808594 71.539063h-86.808594c-4.234375 0-7.664062 3.429687-7.664062 7.664063 0 4.234374 3.429687 7.664062 7.664062 7.664062h86.808594c11.070312 0 20.957031 6.179688 25.796875 16.128906 1.851563 3.804688 6.4375 5.386719 10.246094 3.539063 3.808593-1.855469 5.390625-6.441407 3.539062-10.246094-7.429687-15.269531-22.597656-24.75-39.582031-24.75zm61.375-35.769531h-140.519531c-4.234375 0-7.664063 3.429687-7.664063 7.664062s3.429688 7.664063 7.664063 7.664063h140.519531c4.234375 0 7.664062-3.429688 7.664062-7.664063s-3.429687-7.664062-7.664062-7.664062zm0 0" fill="#89e9d9"/><path d="m137.652344 439.632812c-36.257813-11.769531-68.703125-33.851562-92.925782-63.570312-28.84375-35.390625-44.726562-80.027344-44.726562-125.683594s15.882812-90.292968 44.726562-125.683594c24.222657-29.714843 56.667969-51.796874 92.925782-63.570312-27.976563 13.183594-52.917969 33.03125-72.484375 58.089844-28.84375 36.933594-44.730469 83.515625-44.730469 131.164062 0 47.648438 15.886719 94.230469 44.730469 131.164063 19.566406 25.058593 44.507812 44.90625 72.484375 58.089843zm0 0" fill="#5de0c3"/><path d="m295.34375 250.378906c0 20.269532-3.269531 39.535156-10.996094 56.9375-21.84375 49.210938-71.140625 83.53125-128.449218 83.53125-26.414063 0-51.125-7.289062-72.234376-19.96875-14.589843-8.765625-26.433593-20.105468-36.949218-33.390625-12.605469-15.925781-22.851563-34.644531-27.617188-55.082031-2.402344-10.285156-3.667968-21.007812-3.667968-32.027344 0-12.261718 1.570312-24.152344 4.519531-35.488281 4.765625-18.304687 14.148437-35.152344 25.3125-49.75 11.636719-15.226563 25.296875-28 42.113281-37.414063 17.71875-9.917968 37.804688-16.109374 59.203125-17.511718 1.769531-.117188 27.972656-.554688 54.71875 7.90625 19.835937 6.277344 39.96875 19.742187 50.667969 29.769531 14.066406 13.195313 25.417968 29.25 33.121094 47.242187 7.261718 16.957032 10.257812 35.632813 10.257812 55.246094zm0 0" fill="#fde5bd"/><path d="m255.222656 349.707031c-19.949218 19.953125-44.421875 32.609375-70.113281 38.046875-25.6875-5.4375-50.15625-18.09375-70.113281-38.046875-54.855469-54.855469-54.855469-143.796875 0-198.65625 19.953125-19.953125 44.425781-32.609375 70.113281-38.046875 25.691406 5.4375 50.160156 18.09375 70.113281 38.046875 54.859375 54.859375 54.859375 143.800781 0 198.65625zm0 0" fill="#fff5f5"/><path d="m85.902344 292.589844-51.570313-16.753906c-5.046875-1.640626-10.578125.15625-13.699219 4.449218l-1.515624 2.121094c8.738281 37.5 32.472656 69.164062 64.566406 88.4375l2.21875-.71875c5.050781-1.640625 8.46875-6.347656 8.46875-11.65625v-54.222656c0-5.308594-3.417969-10.015625-8.46875-11.65625zm93.15625-125.101563c3.121094 4.292969 8.652344 6.089844 13.703125 4.449219l51.566406-16.753906c3.597656-1.167969 6.335937-3.90625 7.632813-7.292969-25.121094-23.5625-58.890626-38.019531-96.050782-38.019531-3.140625 0-6.246094.140625-9.335937.34375-2.453125 4.167968-2.273438 9.429687.613281 13.40625zm-91.695313-39.785156c-32.953125 18.453125-57.6875 49.777344-67.410156 87.1875l1.828125 2.519531c3.121094 4.292969 8.652344 6.089844 13.699219 4.449219l51.570312-16.753906c5.050781-1.640625 8.46875-6.347657 8.46875-11.65625v-54.222657c0-5.179687-3.308593-9.777343-8.15625-11.523437zm155.148438 216.996094-51.570313-16.757813c-5.050781-1.640625-10.582031.15625-13.699218 4.453125l-31.871094 43.867188c-3.050782 4.195312-3.074219 9.882812-.164063 14.148437 3.546875.265625 7.089844.402344 10.703125.402344 36.546875 0 69.824219-13.964844 94.808594-36.835938-.847656-4.292968-3.933594-7.886718-8.207031-9.277343zm0 0" fill="#82665c"/><path d="m179.046875 167.523438-30.125-41.460938c11.523437-6.058594 23.738281-10.488281 36.21875-13.128906.117187.023437.238281.046875.355469.070312 25.628906 5.359375 48.402344 17.660156 66.476562 34.898438-1.292968 3.390625-4.0625 6.148437-7.65625 7.320312l-51.570312 16.753906c-5.050782 1.640626-10.582032-.15625-13.699219-4.453124zm63.449219 177.214843-51.566406-16.757812c-5.050782-1.640625-10.582032.15625-13.703126 4.453125l-30.035156 41.339844c12.03125 6.542968 24.851563 11.242187 37.957032 14.015624.117187-.023437.246093-.042968.367187-.066406 24.800781-5.320312 47.15625-17.183594 65.199219-33.699218-.851563-4.292969-3.941406-7.898438-8.21875-9.285157zm-155.457032-139.597656c5.050782-1.636719 8.46875-6.34375 8.46875-11.652344v-18.011719c-6.34375 10.042969-11.292968 20.710938-14.84375 31.738282zm-1.148437 87.488281-6.167969-2.003906c3.394532 11.390625 8.289063 22.421875 14.632813 32.820312v-19.160156c0-5.3125-3.417969-10.015625-8.464844-11.65625zm199.203125-97.492187c-3.855469-.007813-7.601562 1.804687-9.953125 5.046875l-31.875 43.867187c-3.117187 4.292969-3.117187 10.109375 0 14.40625l31.875 43.867188c2.195313 3.023437 5.632813 4.773437 9.210937 4.992187 7.730469-17.40625 12.015626-36.660156 12.015626-56.9375 0-19.613281-4.011719-38.285156-11.273438-55.242187zm-105.226562 107.1875 31.871093-43.867188c3.121094-4.296875 3.121094-10.113281 0-14.40625l-31.871093-43.867187c-3.121094-4.296875-8.652344-6.09375-13.703126-4.453125l-51.566406 16.757812c-5.050781 1.640625-8.46875 6.34375-8.46875 11.652344v54.222656c0 5.308594 3.417969 10.015625 8.46875 11.65625l51.566406 16.753907c5.050782 1.644531 10.582032-.15625 13.703126-4.449219zm0 0" fill="#95776c"/></svg>