<svg height="511pt" viewBox="-5 1 511 511.99949" width="511pt" xmlns="http://www.w3.org/2000/svg"><path d="m501.257812 261.621094c0 138.28125-112.097656 250.378906-250.378906 250.378906-10.390625 0-20.632812-.632812-30.691406-1.863281-24.09375-2.945313-46.113281-11.355469-67.59375-20.648438-20.953125-9.0625-41.445312-18.859375-58.964844-33.019531-56.800781-45.898438-93.128906-116.132812-93.128906-194.847656 0-138.28125 112.097656-250.378906 250.378906-250.378906s250.378906 112.097656 250.378906 250.378906zm0 0" fill="#fdbf43"/><path d="m461.425781 233.75-84.683593 156.375c-3.867188 7.144531-9.859376 12.914062-17.148438 16.503906l-70.769531 34.863282-68.636719 68.644531c-47.601562-5.816407-91.0625-25.007813-126.546875-53.679688l112.003906-112.003906 6.933594 6.929687 228.738281-228.738281 23.332032 81.660157c2.820312 9.859374 1.660156 20.429687-3.222657 29.445312zm0 0" fill="#ffe5c2"/><path d="m260.507812 371.585938-137.449218-137.449219c-7.980469-7.980469-7.980469-20.921875 0-28.90625l199.246094-199.246094c7.980468-7.980469 20.921874-7.980469 28.902343 0l137.453125 137.453125c7.980469 7.980469 7.980469 20.921875 0 28.90625l-199.246094 199.242188c-7.980468 7.984374-20.921874 7.984374-28.90625 0zm0 0" fill="#fd5757"/><path d="m260.507812 371.585938-113.882812-113.882813c-7.980469-7.980469-7.980469-20.921875 0-28.902344l199.246094-199.246093c7.980468-7.984376 20.921875-7.984376 28.902344 0l113.886718 113.882812c7.980469 7.980469 7.980469 20.921875 0 28.90625l-199.246094 199.242188c-7.980468 7.984374-20.921874 7.984374-28.90625 0zm0 0" fill="#fd7a7a"/><path d="m320.015625 257.808594-159.230469 159.230468-13.132812-39.394531c-4.695313-14.089843-1.027344-29.621093 9.472656-40.125l121.304688-121.300781c9.570312-9.570312 25.085937-9.570312 34.65625 0l6.929687 6.929688c9.570313 9.570312 9.570313 25.089843 0 34.660156zm0 0" fill="#ffe5c2"/><path d="m318.082031 221.21875c-3.152343 1.191406-6.117187 3.050781-8.65625 5.589844l-121.300781 121.300781c-10.5 10.503906-14.167969 26.035156-9.472656 40.125 3.800781 11.398437.832031 23.96875-7.664063 32.464844l-53.089843 53.085937c-8.4375-5.300781-16.546876-11.074218-24.269532-17.316406l46.359375-46.359375c8.496094-8.496094 11.464844-21.066406 7.664063-32.464844-4.695313-14.089843-1.027344-29.621093 9.472656-40.125l121.300781-121.300781c9.570313-9.570312 25.089844-9.570312 34.660157 0zm0 0" fill="#fed2a4"/><path d="m299.074219 257.660156-20.5-20.5c-1.996094-1.996094-1.996094-5.230468 0-7.226562l6.34375-6.339844c5.984375-5.988281 15.691406-5.988281 21.679687 0l6.046875 6.046875c5.984375 5.984375 5.984375 15.691406 0 21.675781l-6.34375 6.34375c-1.996093 1.996094-5.230469 1.996094-7.226562 0zm0 0" fill="#fff3de"/></svg>